<svg width="1280" height="704" viewBox="0 0 1280 704" fill="none" xmlns="http://www.w3.org/2000/svg">
  <rect width="1280" height="704" rx="36" fill="#0F172A"/>
  <rect width="1280" height="704" rx="36" fill="url(#paint0_radial)" fill-opacity="0.9"/>
  <path d="M120 534C246 412 343 314 492 314C633 314 706 445 833 445C956 445 1046 350 1160 226" stroke="url(#paint1_linear)" stroke-width="10" stroke-linecap="round"/>
  <path d="M204 596C314 465 400 392 525 392C655 392 732 518 860 518C993 518 1085 404 1178 300" stroke="url(#paint2_linear)" stroke-width="6" stroke-linecap="round" stroke-opacity="0.7"/>
  <circle cx="352" cy="260" r="118" stroke="#A78BFA" stroke-width="8" stroke-opacity="0.45"/>
  <circle cx="352" cy="260" r="64" stroke="#C4B5FD" stroke-width="8" stroke-opacity="0.75"/>
  <circle cx="352" cy="260" r="14" fill="#DDD6FE"/>
  <circle cx="352" cy="260" r="176" stroke="#8B5CF6" stroke-width="2" stroke-dasharray="8 14" stroke-opacity="0.35"/>
  <path d="M210 260H494" stroke="#E9D5FF" stroke-width="4" stroke-linecap="round" stroke-opacity="0.6"/>
  <g opacity="0.82">
    <text x="694" y="286" fill="#F8FAFC" font-family="Pretendard, Arial, sans-serif" font-size="74" font-weight="700" letter-spacing="-0.04em">Topological</text>
    <text x="694" y="372" fill="#DDD6FE" font-family="Pretendard, Arial, sans-serif" font-size="74" font-weight="700" letter-spacing="-0.04em">Semimetals</text>
  </g>
  <text x="697" y="438" fill="#CBD5E1" font-family="Pretendard, Arial, sans-serif" font-size="28" font-weight="500">Placeholder visual for the application-session card</text>
  <rect x="694" y="506" width="190" height="48" rx="24" fill="#7C3AED" fill-opacity="0.18" stroke="#A78BFA" stroke-opacity="0.25"/>
  <text x="728" y="538" fill="#E9D5FF" font-family="Pretendard, Arial, sans-serif" font-size="24" font-weight="600">Ongoing direction</text>
  <defs>
    <radialGradient id="paint0_radial" cx="0" cy="0" r="1" gradientUnits="userSpaceOnUse" gradientTransform="translate(1100 128) rotate(137.433) scale(826.489 728.198)">
      <stop stop-color="#1D4ED8"/>
      <stop offset="1" stop-color="#0F172A" stop-opacity="0"/>
    </radialGradient>
    <linearGradient id="paint1_linear" x1="120" y1="380" x2="1160" y2="380" gradientUnits="userSpaceOnUse">
      <stop stop-color="#8B5CF6"/>
      <stop offset="1" stop-color="#38BDF8"/>
    </linearGradient>
    <linearGradient id="paint2_linear" x1="204" y1="448" x2="1178" y2="448" gradientUnits="userSpaceOnUse">
      <stop stop-color="#C084FC"/>
      <stop offset="1" stop-color="#67E8F9"/>
    </linearGradient>
  </defs>
</svg>
